<?xml version="1.0" standalone="no"?>
<!DOCTYPE svg PUBLIC "-//W3C//DTD SVG 20010904//EN"
 "http://www.w3.org/TR/2001/REC-SVG-20010904/DTD/svg10.dtd">
<svg version="1.0" xmlns="http://www.w3.org/2000/svg"
 width="128.000000pt" height="128.000000pt" viewBox="0 0 128.000000 128.000000"
 preserveAspectRatio="xMidYMid meet">

<g transform="translate(0.000000,128.000000) scale(0.100000,-0.100000)"
fill="#000000" stroke="none">
<path d="M290 814 c-64 -28 -120 -96 -120 -146 1 -44 41 -111 104 -173 112
-109 196 -120 269 -35 98 115 60 288 -78 351 -48 22 -127 24 -175 3z m205 -59
c16 -15 25 -36 25 -55 0 -30 -1 -30 -52 -30 -59 0 -88 19 -88 60 0 35 17 50
57 50 23 0 42 -8 58 -25z"/>
<path d="M815 811 c-140 -65 -179 -240 -78 -352 76 -84 158 -73 269 36 109
107 128 186 61 262 -61 70 -168 93 -252 54z m220 -64 c8 -12 15 -34 15 -49 0
-27 -2 -28 -55 -28 -47 0 -57 3 -71 24 -49 75 60 126 111 53z"/>
<path d="M531 296 c-27 -32 41 -86 109 -86 68 0 136 54 109 86 -15 18 -39 17
-63 -1 -25 -19 -65 -19 -90 0 -25 19 -50 19 -65 1z"/>
</g>
</svg>
