<?xml version="1.0" standalone="no"?>
<!DOCTYPE svg PUBLIC "-//W3C//DTD SVG 20010904//EN"
 "http://www.w3.org/TR/2001/REC-SVG-20010904/DTD/svg10.dtd">
<svg version="1.0" xmlns="http://www.w3.org/2000/svg"
 width="128.000000pt" height="128.000000pt" viewBox="0 0 128.000000 128.000000"
 preserveAspectRatio="xMidYMid meet">

<g transform="translate(0.000000,128.000000) scale(0.100000,-0.100000)"
fill="#000000" stroke="none">
<path d="M445 1266 c-39 -17 -93 -78 -101 -114 -10 -48 -13 -52 -39 -52 -96 0
-177 -107 -160 -211 4 -21 24 -74 45 -118 63 -131 63 -131 69 -460 5 -231 9
-305 19 -309 9 -3 12 59 12 285 0 325 -4 352 -70 492 -52 108 -58 145 -32 204
25 56 70 87 129 87 40 0 41 1 48 38 13 81 76 142 146 142 22 0 53 -11 82 -30
l47 -30 47 30 c29 19 60 30 82 30 70 0 133 -61 146 -142 7 -37 8 -38 48 -38
59 0 104 -31 129 -87 26 -59 20 -96 -32 -204 -66 -140 -70 -167 -70 -491 0
-261 5 -321 24 -272 3 9 6 137 6 286 0 304 4 334 69 468 22 44 42 98 46 119
17 104 -64 211 -160 211 -26 0 -29 4 -39 52 -4 15 -21 44 -38 64 -59 67 -133
81 -210 40 l-46 -24 -48 24 c-52 27 -103 30 -149 10z"/>
<path d="M455 1166 c-55 -55 -35 -172 36 -210 32 -17 40 -18 68 -6 18 7 38 25
46 41 57 110 -68 257 -150 175z m86 -16 c25 -14 49 -62 49 -99 0 -17 -10 -42
-24 -57 -21 -26 -25 -27 -54 -15 -50 21 -76 95 -51 144 20 38 44 46 80 27z"/>
<path d="M715 1168 c-75 -59 -72 -186 6 -218 99 -41 184 136 104 216 -30 30
-73 31 -110 2z m89 -23 c38 -39 31 -110 -15 -149 -17 -14 -37 -26 -44 -26 -21
0 -55 50 -55 82 0 76 72 135 114 93z"/>
<path d="M272 1003 c-17 -7 -42 -57 -42 -84 0 -35 38 -105 67 -124 93 -61 178
33 127 141 -26 55 -100 88 -152 67z m107 -58 c41 -47 44 -106 7 -131 -21 -13
-29 -14 -53 -2 -32 15 -73 72 -73 102 0 35 28 66 60 66 20 0 37 -10 59 -35z"/>
<path d="M904 991 c-93 -57 -79 -217 19 -214 47 1 82 26 107 77 24 50 25 77 5
115 -23 46 -77 55 -131 22z m100 -33 c9 -12 16 -32 16 -44 0 -30 -41 -87 -73
-102 -24 -12 -32 -11 -53 2 -19 13 -24 25 -24 56 0 81 95 144 134 88z"/>
<path d="M559 887 c-19 -12 -58 -54 -87 -92 -92 -121 -110 -180 -72 -242 31
-52 48 -56 240 -56 192 0 209 4 240 56 38 62 20 121 -72 242 -68 88 -106 115
-168 115 -32 0 -58 -7 -81 -23z m149 -23 c27 -18 126 -151 149 -198 21 -45 11
-100 -23 -123 -21 -13 -54 -16 -194 -16 -193 0 -214 6 -226 69 -8 45 7 78 81
178 67 92 87 106 145 106 25 0 56 -7 68 -16z"/>
</g>
</svg>
